<svg xmlns="http://www.w3.org/2000/svg" viewBox="0 0 117.25 115.97"><g data-name="Слой 2"><path d="M61.5 91.94v24c30.64-.14 55.28-5.46 55.28-12s-24.64-11.87-55.28-12z" fill="#231f20" opacity=".15"/><path d="M113.46 44c-1.13-1.73-2.28-5.88-3.48-6.47-6.69-14.15-19-25.94-34-31 6.53.39 9.32 4.16 13 6.33 10.61 5.71 18.65 15.62 23.17 25.61a56.43 56.43 0 0 0-6.82-11.26A44.79 44.79 0 0 1 113.46 44zm1.71 12.75a39.9 39.9 0 0 1 .27 4.62c-.09-1.58-.18-3.11-.27-4.62zM66 9.32a54.63 54.63 0 0 0-20.71 1c7.41-2 15.91-3.06 23.43-.94L66 9.32zm9.48 3.23A39.32 39.32 0 0 1 92.37 23a43.68 43.68 0 0 0-16.91-10.45zM22.35 16c.8-.66 1.6-1.28 2.4-1.87-.81.61-1.61 1.23-2.4 1.87zm83.93 67.9a7.8 7.8 0 0 0-1.57 2.61c1.41-1.6 3.64-5.14 4.65-6l-.19 2c4.05-4.42 6.65-15.09 8.07-21.07-2.53 14.49-9.67 30.28-22.91 41.31-13 11.09-32.17 15.93-48.64 11.5A62.43 62.43 0 0 1 3.61 81.5C2 78.48.21 70.37.27 64.54A65.45 65.45 0 0 1 5 34C14.13 13.41 35.88.25 59.6 0c4.86.15 10.79 2.62-.41 2.82a72.34 72.34 0 0 0-21.31 5.4 57 57 0 0 1 14.58-3.84c-2.14.43-4.3.82-6.17 1.26A63.09 63.09 0 0 1 75.91 7.2a62.41 62.41 0 0 0-41.56 5.31C21.52 19.09 11.44 31 7.67 44.31 11 37.42 15.12 27.79 21 24A55.82 55.82 0 0 0 5.57 57.48c0-1-.09-1.89 0-2.83-1.85 7.88-.36 16.65 2.09 24.23a55.83 55.83 0 0 1-2-21.41c0 3.25.06 6.66.41 10.75.19-2.25.17-5.43.51-8.57a48 48 0 0 1 2-12.17 41.31 41.31 0 0 0-.73 18c-.29-8.35 1.15-17.04 4.71-24.6A51.39 51.39 0 0 0 9.13 54.1a50.65 50.65 0 0 0 1.26 23l-.29-.85a14.79 14.79 0 0 0 .59 1.7 53.48 53.48 0 0 0 3.6 8.55A30.58 30.58 0 0 0 19.4 93l.83 1c-.67-.56-1.14-.73-.17.64 4.2 6 11.06 10.08 18.14 14.3a25.46 25.46 0 0 0 7.8 2.74 2.73 2.73 0 0 0 1.69.33c.67.11 1.34.29 2 .36 1.66.22 3.32.49 5 .54-1.61-.19-3.29-.38-5-.54-.63-.08-1.22-.27-1.84-.39a4.4 4.4 0 0 1 1.84 0A54.05 54.05 0 0 1 20.23 94c.62.41 1.43 1 1.8 1.26A24.2 24.2 0 0 1 19.4 93a53.92 53.92 0 0 1-6.24-9.68 17 17 0 0 0 1.89 2.56A53.93 53.93 0 0 1 9.13 54.1a50.7 50.7 0 0 1 13.63-26.75 40 40 0 0 0-10.2 13.53c5.92-14.47 19.16-26.11 34.55-29.15a36 36 0 0 0-5.66 3.57 26.9 26.9 0 0 1 4.63-1.84l.84-.2a48.12 48.12 0 0 0-5.57 2.12 6.77 6.77 0 0 0-1.22 1.27c.26.29 4.78-1.06 2.3.13-8.57 4.86-14.49 9-15.16 13.74 0 .07.12.07.33 0A44.51 44.51 0 0 1 106.36 59a45.73 45.73 0 0 1-.39 5.82c.27-.7.55-1.37.82-2.21.26 8.34-3.8 16.94-7 24.21 6.38-7.3 8.67-20.65 10.7-22 2.92-1.29-1.32 14.09-5.58 20.76l1.34-1.67zM32.79 10.61v.09c.75-.42 1.5-.81 2.26-1.18-.74.35-1.48.71-2.21 1.09.66-1.06 4.76-2.74 6.57-3.81a48.23 48.23 0 0 0-14.61 7.33 58.49 58.49 0 0 1 7.4-4.85A57.63 57.63 0 0 0 8.26 33.59c-1.89 4-5.86 6.94-5.85 13.76a62 62 0 0 1 30.38-36.74zm-5.34 77.08l.17-.22c-.52-.63-1-1.27-1.52-1.92a11.05 11.05 0 0 1 .6 1.79 16.16 16.16 0 0 1 1.89 1.38 5.77 5.77 0 0 0-1.14-1zm23.35 14.44l.28.2h.43l-.71-.17zm6.86 1.18l2 .42a2.77 2.77 0 0 0 .53-.26c-.83 0-1.67-.08-2.49-.16zM69.07 13a48.37 48.37 0 0 1 12.52 3.92 39.61 39.61 0 0 1 12.57 10.36A50 50 0 0 0 69.07 13z" fill="#7c529d"/><path d="M73.15 86.79H43.26A11.12 11.12 0 0 1 32 75.82V45a11.12 11.12 0 0 1 11.23-11h29.92a11.11 11.11 0 0 1 11.23 11v30.82a11.12 11.12 0 0 1-11.23 11zM79.86 45a6.6 6.6 0 0 0-6.71-6.46H43.26A6.59 6.59 0 0 0 36.54 45v30.82a6.59 6.59 0 0 0 6.71 6.45h29.9a6.6 6.6 0 0 0 6.71-6.45V45zM58.2 74.11a13.69 13.69 0 1 1 13.69-13.68A13.7 13.7 0 0 1 58.2 74.11zm0-22.85a9.17 9.17 0 1 0 9.17 9.17 9.17 9.17 0 0 0-9.17-9.17zm14.69-2a3.2 3.2 0 1 1 3.2-3.2 3.2 3.2 0 0 1-3.2 3.2z"/></g></svg>