<svg id="Layer_1" data-name="Layer 1" xmlns="http://www.w3.org/2000/svg" xmlns:xlink="http://www.w3.org/1999/xlink" viewBox="0 0 170.08 121.37"><defs><style>.cls-1,.cls-2,.cls-3{fill:none;}.cls-2,.cls-3{stroke:#869098;stroke-miterlimit:10;}.cls-2{stroke-width:3.17px;}.cls-3{stroke-width:3px;}.cls-4{clip-path:url(#clip-path);}.cls-5{fill:#2f353c;}</style><clipPath id="clip-path" transform="translate(-14.96 -39.31)"><rect class="cls-1" width="200" height="200"/></clipPath></defs><title>why2</title><line class="cls-2" x1="39.29" y1="10.26" x2="24.35" y2="25.38"/><line class="cls-2" x1="56.46" y1="10.26" x2="43.21" y2="25.07"/><line class="cls-2" x1="73.63" y1="10.26" x2="60.38" y2="25.07"/><line class="cls-2" x1="90.79" y1="10.26" x2="77.55" y2="25.07"/><line class="cls-2" x1="107.96" y1="10.26" x2="94.72" y2="25.07"/><line class="cls-2" x1="125.13" y1="10.26" x2="111.89" y2="25.07"/><line class="cls-2" x1="142.3" y1="10.26" x2="129.05" y2="25.07"/><rect class="cls-3" x="24.45" y="79.01" width="72.67" height="5.86"/><rect class="cls-3" x="121.56" y="79.02" width="24.14" height="17.98"/><rect class="cls-3" x="24.38" y="91.12" width="36.22" height="5.85"/><g class="cls-4"><path class="cls-5" d="M59.7,43.51H173.63c4.58,0,7.21,2.61,7.21,7.18q0,49.3,0,98.6c0,4.63-2.56,7.18-7.2,7.18H26.36c-4.63,0-7.19-2.55-7.19-7.18q0-49.31,0-98.61c0-4.62,2.56-7.17,7.2-7.17H59.7M23.05,67.73h154V57.88c0-6.94-3.67-10.61-10.61-10.61l-114.25,0H45.27q-6.41,0-12.82,0c-5,0-8.8,3.13-9.31,7.54A45,45,0,0,0,23,61.13c0,.8.05,1.6.05,2.4v4.2m75.5,85H167c6.31,0,10.09-3.8,10.09-10.16V95.89H22.92v46.76c0,6.32,3.78,10.09,10.11,10.1H98.55M59.7,39.31H26.36c-6.94,0-11.4,4.45-11.4,11.37Q15,100,15,149.3c0,7,4.44,11.38,11.39,11.38H173.63c7,0,11.4-4.44,11.4-11.37q0-49.31,0-98.61c0-6.89-4.5-11.38-11.41-11.38H59.7M27.25,63.53a73,73,0,0,1,.07-8.24c.27-2.42,2.42-3.81,5.15-3.82q6.41,0,12.8,0H166.46c4.62,0,6.41,1.79,6.41,6.42v5.65Zm145.63,36.56v42.49c0,4-1.93,6-5.89,6H33c-4.05,0-5.91-1.87-5.91-5.9V100.09Z" transform="translate(-14.96 -39.31)"/></g></svg>