<svg xmlns="http://www.w3.org/2000/svg" viewBox="0 0 117.25 116.97"><g data-name="Слой 2"><path d="M61.5 92.94v24c30.64-.14 55.28-5.46 55.28-12s-24.64-11.87-55.28-12z" fill="#231f20" opacity=".15"/><path d="M113.46 44c-1.13-1.73-2.28-5.88-3.48-6.47-6.69-14.15-19-25.94-34-31 6.53.39 9.32 4.16 13 6.33 10.61 5.71 18.65 15.62 23.18 25.61a56.49 56.49 0 0 0-6.82-11.26 44.75 44.75 0 0 1 8.2 16.8zm1.71 12.75a39.67 39.67 0 0 1 .27 4.62c-.09-1.58-.19-3.11-.27-4.62zM66 9.32a54.69 54.69 0 0 0-20.71 1c7.41-2 15.91-3.06 23.43-.94L66 9.32zm9.48 3.23A39.31 39.31 0 0 1 92.37 23a43.7 43.7 0 0 0-16.9-10.42zM22.35 16c.8-.66 1.6-1.28 2.4-1.87-.81.61-1.61 1.24-2.4 1.88zm83.93 67.9a7.82 7.82 0 0 0-1.56 2.61c1.41-1.6 3.64-5.14 4.65-6l-.2 2c4.05-4.42 6.65-15.09 8.07-21.07-2.54 14.49-9.68 30.28-22.91 41.31-13 11.09-32.16 15.93-48.64 11.5A62.44 62.44 0 0 1 3.61 81.5C2 78.48.21 70.37.27 64.54A65.46 65.46 0 0 1 5 34C14.13 13.41 35.88.25 59.6 0c4.86.15 10.79 2.62-.41 2.82a72.35 72.35 0 0 0-21.31 5.4 56.92 56.92 0 0 1 14.58-3.84c-2.14.43-4.3.82-6.17 1.25A63.06 63.06 0 0 1 75.91 7.2a62.41 62.41 0 0 0-41.56 5.31C21.52 19.09 11.44 31 7.67 44.31 11 37.42 15.12 27.8 21 24A55.82 55.82 0 0 0 5.57 57.48c0-1-.09-1.89 0-2.83-1.85 7.88-.36 16.65 2.1 24.23a55.81 55.81 0 0 1-2-21.41c0 3.25.06 6.66.41 10.75.19-2.25.17-5.43.51-8.57a48.1 48.1 0 0 1 2-12.17 41.3 41.3 0 0 0-.73 18c-.3-8.35 1.14-17.04 4.7-24.6A51.4 51.4 0 0 0 9.13 54.1a50.65 50.65 0 0 0 1.26 23l-.29-.85a14.3 14.3 0 0 0 .59 1.69 53.36 53.36 0 0 0 3.6 8.55A30.57 30.57 0 0 0 19.4 93l.83 1c-.67-.56-1.14-.73-.17.64 4.2 6 11.06 10.09 18.14 14.3a25.44 25.44 0 0 0 7.8 2.74 2.72 2.72 0 0 0 1.69.33c.67.11 1.34.29 2 .36 1.66.22 3.32.49 5 .54-1.61-.19-3.28-.38-5-.54-.63-.08-1.23-.27-1.84-.39a4.44 4.44 0 0 1 1.84 0A54.06 54.06 0 0 1 20.23 94c.62.41 1.43 1 1.8 1.26A24 24 0 0 1 19.4 93a53.82 53.82 0 0 1-6.24-9.69 16.86 16.86 0 0 0 1.89 2.56A53.93 53.93 0 0 1 9.13 54.1a50.7 50.7 0 0 1 13.63-26.75 40 40 0 0 0-10.2 13.53c5.92-14.47 19.16-26.11 34.55-29.15a36 36 0 0 0-5.66 3.57 26.76 26.76 0 0 1 4.63-1.84l.84-.2a48.27 48.27 0 0 0-5.57 2.12 6.81 6.81 0 0 0-1.22 1.26c.26.29 4.78-1.06 2.3.13-8.56 4.86-14.49 9-15.16 13.73 0 .07.12.08.33 0A44.51 44.51 0 0 1 106.36 59a46.08 46.08 0 0 1-.39 5.82c.27-.7.54-1.37.82-2.21.26 8.34-3.8 16.94-7 24.21 6.39-7.3 8.67-20.65 10.7-22 2.92-1.29-1.32 14.09-5.58 20.76l1.34-1.67zM32.79 10.61v.08c.75-.42 1.5-.8 2.26-1.17-.74.35-1.48.71-2.21 1.09.66-1.06 4.76-2.74 6.57-3.81a48.28 48.28 0 0 0-14.6 7.33 58.52 58.52 0 0 1 7.39-4.85A57.63 57.63 0 0 0 8.26 33.59c-1.89 4-5.86 6.94-5.85 13.76a62 62 0 0 1 30.38-36.74zm-5.34 77.08l.17-.22c-.52-.63-1-1.27-1.52-1.92a11.15 11.15 0 0 1 .6 1.79 16.34 16.34 0 0 1 1.89 1.38 5.8 5.8 0 0 0-1.14-1zm23.35 14.44l.28.2h.44l-.71-.17zm6.85 1.18l2 .42a2.9 2.9 0 0 0 .53-.26c-.83 0-1.67-.08-2.49-.16zM69.07 13a48.34 48.34 0 0 1 12.52 3.92 39.58 39.58 0 0 1 12.57 10.36A50 50 0 0 0 69.07 13z" fill="#00aff0"/><path d="M78.3 38.32L26 58.72a1.91 1.91 0 0 0 .15 3.61l13.3 3.93 5 15.75a2.28 2.28 0 0 0 3.81.91l6.88-7 13.5 9.91A2.81 2.81 0 0 0 73 84.11l8.94-42.73a2.69 2.69 0 0 0-3.61-3.06zm-6.56 9.48L47.43 69.31a1.3 1.3 0 0 0-.43.83l-.94 8.32a.25.25 0 0 1-.49 0L41.71 66.1a1.31 1.31 0 0 1 .56-1.5L71 46.79a.63.63 0 0 1 .75 1z" /></g></svg>