<svg id="Layer_1" data-name="Layer 1" xmlns="http://www.w3.org/2000/svg" xmlns:xlink="http://www.w3.org/1999/xlink" viewBox="0 0 170.08 169.98"><defs><style>.cls-1,.cls-2{fill:none;}.cls-2{stroke:#869098;stroke-miterlimit:10;stroke-width:3px;}.cls-3{clip-path:url(#clip-path);}.cls-4{fill:#2f353c;}</style><clipPath id="clip-path" transform="translate(-14.96 -15.01)"><rect class="cls-1" width="200" height="200"/></clipPath></defs><title>why1</title><line class="cls-2" x1="56.86" y1="77.05" x2="56.86" y2="123.91"/><line class="cls-2" x1="71.27" y1="103.69" x2="71.27" y2="119.48"/><line class="cls-2" x1="84.1" y1="101.37" x2="84.1" y2="121.43"/><line class="cls-2" x1="93.5" y1="82.19" x2="93.5" y2="117.64"/><line class="cls-2" x1="78.63" y1="90.05" x2="78.63" y2="53.3"/><line class="cls-2" x1="95.9" y1="50.6" x2="95.9" y2="63.32"/><line class="cls-2" x1="110.75" y1="48.05" x2="110.75" y2="91.52"/><g class="cls-3"><path class="cls-4" d="M145.71,19.21h11.67c12,0,22.59,10,23.2,21.83.26,5,.19,10.18.12,15.19,0,2.31-.06,4.69-.06,7v4.19h.17c0,.71,0,1.43,0,2.15,0,4.9,0,10,0,15a12,12,0,0,1-3.93,9.31c-8.22,8.13-16.52,16.45-24.55,24.48L141.6,129.16l-18.24,18.22-20.09,20.06c-1.45,1.45-2.89,2.91-4.34,4.37-1.83,1.85-3.73,3.77-5.61,5.63a10,10,0,0,1-15-.08c-17.71-17.74-34.86-34.87-55.43-55.42-2.52-2.52-5.07-6.56-2.91-11.51a12,12,0,0,1,2.28-3.4c4.06-4.17,8.26-8.36,12.33-12.41L39.19,90l9.41-9.4L67,62.2l18.5-18.48,15.24-15.23c.83-.82,1.64-1.64,2.46-2.47,1.26-1.28,2.57-2.6,3.86-3.87a9.79,9.79,0,0,1,7.25-2.93h31.37m11.11,42.47H157A18.34,18.34,0,0,0,156.51,25h-.19a18.34,18.34,0,0,0,.5,36.68M120.4,65.06A27.82,27.82,0,0,0,106,60.84a25.46,25.46,0,0,0-4.67.44c-8.91,1.67-17.08,9.44-19,18.07a22.86,22.86,0,0,0,2.56,16.31c1.46,2.67,3.08,5.22,4.65,7.7,1.13,1.79,2.31,3.64,3.38,5.47a34.28,34.28,0,0,1,3,6.35,2.34,2.34,0,0,1-.07,1.9,2.37,2.37,0,0,1-1.55,1.11,5.7,5.7,0,0,1-1.36.16,6.42,6.42,0,0,1-1.57-.2c-3.33-.94-6-3.19-8.28-7.09s-1.55-6-.51-7.5l2-2.87-2.46-2.46-9.77-9.79-3-3-3,3C60.07,94.78,56.24,106.83,65,120.8l-6.61,6.27L55.25,130l3,3.05,6.64,6.76,2,2,3,3,3-3,4.59-4.63,2.09-2.11,1,.6c5.09,2.93,9.87,4.35,14.61,4.35a23.71,23.71,0,0,0,10.17-2.33,26.36,26.36,0,0,0,11.61-10.6c3.87-6.51,3.82-13.71-.15-21.4-1.48-2.87-3.18-5.58-4.83-8.2-1-1.57-2-3.19-2.92-4.78l-.26-.45a40.43,40.43,0,0,1-3.21-6.26c-.55-1.51-.46-2.62,1.67-3.49a2.81,2.81,0,0,1,1.1-.22,4.15,4.15,0,0,1,1.47.3,12.81,12.81,0,0,1,7.66,7.51,5.39,5.39,0,0,1-.2,4.81c-.1.2-.25.44-.38.65l-.19.32L115,98.74l2.28,2.3,3.92,4,5.6,5.65,3.11,3.15,3-3.27A23.06,23.06,0,0,0,138.57,100c1.53-6.81.34-13.53-3.64-20.45l1.3-1.29,5.52-5.47,3-3-3-3-4.36-4.39-4.33-4.36-3-3-3,3.09-5,5.21-1.64,1.7M145.71,15H114.32a14,14,0,0,0-10.16,4.13c-2.15,2.09-4.23,4.25-6.35,6.37Q80.94,42.38,64.06,59.23L36.22,87.06c-5.66,5.67-11.38,11.29-17,17a15.86,15.86,0,0,0-3.11,4.65c-2.46,5.61-1,11.37,3.78,16.16q27.72,27.69,55.43,55.42a14.17,14.17,0,0,0,20.93.09c3.34-3.31,6.63-6.68,10-10q19.16-19.15,38.33-38.29c11.76-11.75,23.48-23.54,35.29-35.24A16.28,16.28,0,0,0,185,84.54c-.1-7.08,0-14.17,0-21.25h-.17c0-7.49.32-15-.07-22.46-.72-14-13.36-25.78-27.38-25.81H145.71m11.11,42.47a14.14,14.14,0,0,1-.46-28.28h.15A14.14,14.14,0,0,1,157,57.48Zm-35.8,13,9.08-9.4,8.69,8.76L129.58,79c4.24,6.19,6.56,12.71,4.89,20.14a18.85,18.85,0,0,1-4.65,8.61l-9.52-9.62c.15-.26.44-.7.68-1.16a9.57,9.57,0,0,0,.36-8.32,17,17,0,0,0-10-9.86,8.34,8.34,0,0,0-3-.58,7.11,7.11,0,0,0-2.68.53c-3.87,1.57-5.5,4.82-4,8.82a47.24,47.24,0,0,0,3.78,7.39c2.5,4.29,5.38,8.38,7.65,12.79,2.91,5.62,3.72,11.53.27,17.33a22.34,22.34,0,0,1-9.79,8.94,19.43,19.43,0,0,1-8.38,1.93,25.21,25.21,0,0,1-12.52-3.79c-1.2-.7-2.33-1.5-3.65-2.35l-9.09,9.17-8.64-8.81,9.23-8.73c-9.88-13.22-6.75-24.3-1.07-30l9.77,9.78c-2.73,4-2,8.06.37,12,2.52,4.24,5.89,7.63,10.76,9a10.35,10.35,0,0,0,2.7.35,9.61,9.61,0,0,0,2.42-.29,6.33,6.33,0,0,0,4.55-8.4,39.36,39.36,0,0,0-3.37-7.13c-2.58-4.41-5.53-8.6-8-13.08a18.8,18.8,0,0,1-2.14-13.38c1.54-7,8.41-13.49,15.66-14.85A21,21,0,0,1,106,65a24.25,24.25,0,0,1,12.77,4c.69.42,1.35.88,2.21,1.45" transform="translate(-14.96 -15.01)"/></g></svg>