<?xml version="1.0" encoding="UTF-8"?><!DOCTYPE svg PUBLIC "-//W3C//DTD SVG 1.1//EN" "http://www.w3.org/Graphics/SVG/1.1/DTD/svg11.dtd"><svg xmlns="http://www.w3.org/2000/svg" xmlns:xlink="http://www.w3.org/1999/xlink"><defs>
        <clipPath id="clip-path" transform="translate(-14.96 -15.01)">
            <path fill="none" d="M0 0h200v200H0z"/>
        </clipPath>
        <style>
            .cls-2{fill:none;stroke:#869098;stroke-miterlimit:10;stroke-width:3px}
        </style>
    
        <clipPath id="clip-path" transform="translate(-14.96 -39.31)">
            <path fill="none" d="M0 0h200v200H0z"/>
        </clipPath>
        <style>
            .cls-2,.cls-3{fill:none;stroke:#869098;stroke-miterlimit:10}.cls-2{stroke-width:3.17px}.cls-3{stroke-width:3px}
        </style>
    </defs><symbol id="ico-color-example" viewBox="0 0 51.9 51.9">
    <circle cx="26" cy="26" r="26" fill="#fc2c38"/>
    <path d="M40 21.9h-.8l-3.1-8.7H16l-3.1 8.7H8.8v2.8h3.1v14h5.4v-4.4h17.3v4.4H40V24.6h3.1v-2.8H40zm-22.1-6.5h16.5l2.4 6.5H15.5l2.4-6.5zm3.9 13.7h-6.5v-2.8h6.5v2.8zm15.3 0h-6.5v-2.8h6.5v2.8z" fill-rule="evenodd" clip-rule="evenodd" fill="#fff"/>
</symbol><symbol id="ico-color-facebook" viewBox="0 0 10 19">
    <path d="M9.766.157v2.946H8.014c-.64 0-1.071.134-1.295.402-.223.268-.335.67-.335 1.205v2.11h3.27l-.435 3.303H6.384v8.471H2.97v-8.47H.123V6.82H2.97V4.387c0-1.384.387-2.457 1.161-3.22C4.904.404 5.934.023 7.222.023c1.093 0 1.941.045 2.544.134z" fill="#000" fill-rule="evenodd"/>
</symbol><symbol id="ico-color-facebook2" viewBox="0 0 10 19">
    <path d="M9.766.157v2.946H8.014c-.64 0-1.071.134-1.295.402-.223.268-.335.67-.335 1.205v2.11h3.27l-.435 3.303H6.384v8.471H2.97v-8.47H.123V6.82H2.97V4.387c0-1.384.387-2.457 1.161-3.22C4.904.404 5.934.023 7.222.023c1.093 0 1.941.045 2.544.134z" fill="#000" fill-rule="evenodd"/>
</symbol><symbol id="ico-color-instagram" viewBox="0 0 117.25 115.97">
    <g data-name="&#x421;&#x43B;&#x43E;&#x439; 2">
        <path d="M61.5 91.94v24c30.64-.14 55.28-5.46 55.28-12s-24.64-11.87-55.28-12z" fill="#231f20" opacity=".15"/>
        <path d="M113.46 44c-1.13-1.73-2.28-5.88-3.48-6.47-6.69-14.15-19-25.94-34-31 6.53.39 9.32 4.16 13 6.33 10.61 5.71 18.65 15.62 23.17 25.61a56.43 56.43 0 00-6.82-11.26A44.79 44.79 0 01113.46 44zm1.71 12.75a39.9 39.9 0 01.27 4.62c-.09-1.58-.18-3.11-.27-4.62zM66 9.32a54.63 54.63 0 00-20.71 1c7.41-2 15.91-3.06 23.43-.94L66 9.32zm9.48 3.23A39.32 39.32 0 0192.37 23a43.68 43.68 0 00-16.91-10.45zM22.35 16c.8-.66 1.6-1.28 2.4-1.87-.81.61-1.61 1.23-2.4 1.87zm83.93 67.9a7.8 7.8 0 00-1.57 2.61c1.41-1.6 3.64-5.14 4.65-6l-.19 2c4.05-4.42 6.65-15.09 8.07-21.07-2.53 14.49-9.67 30.28-22.91 41.31-13 11.09-32.17 15.93-48.64 11.5A62.43 62.43 0 013.61 81.5C2 78.48.21 70.37.27 64.54A65.45 65.45 0 015 34C14.13 13.41 35.88.25 59.6 0c4.86.15 10.79 2.62-.41 2.82a72.34 72.34 0 00-21.31 5.4 57 57 0 0114.58-3.84c-2.14.43-4.3.82-6.17 1.26A63.09 63.09 0 0175.91 7.2a62.41 62.41 0 00-41.56 5.31C21.52 19.09 11.44 31 7.67 44.31 11 37.42 15.12 27.79 21 24A55.82 55.82 0 005.57 57.48c0-1-.09-1.89 0-2.83-1.85 7.88-.36 16.65 2.09 24.23a55.83 55.83 0 01-2-21.41c0 3.25.06 6.66.41 10.75.19-2.25.17-5.43.51-8.57a48 48 0 012-12.17 41.31 41.31 0 00-.73 18c-.29-8.35 1.15-17.04 4.71-24.6A51.39 51.39 0 009.13 54.1a50.65 50.65 0 001.26 23l-.29-.85a14.79 14.79 0 00.59 1.7 53.48 53.48 0 003.6 8.55A30.58 30.58 0 0019.4 93l.83 1c-.67-.56-1.14-.73-.17.64 4.2 6 11.06 10.08 18.14 14.3a25.46 25.46 0 007.8 2.74 2.73 2.73 0 001.69.33c.67.11 1.34.29 2 .36 1.66.22 3.32.49 5 .54-1.61-.19-3.29-.38-5-.54-.63-.08-1.22-.27-1.84-.39a4.4 4.4 0 011.84 0A54.05 54.05 0 0120.23 94c.62.41 1.43 1 1.8 1.26A24.2 24.2 0 0119.4 93a53.92 53.92 0 01-6.24-9.68 17 17 0 001.89 2.56A53.93 53.93 0 019.13 54.1a50.7 50.7 0 0113.63-26.75 40 40 0 00-10.2 13.53c5.92-14.47 19.16-26.11 34.55-29.15a36 36 0 00-5.66 3.57 26.9 26.9 0 014.63-1.84l.84-.2a48.12 48.12 0 00-5.57 2.12 6.77 6.77 0 00-1.22 1.27c.26.29 4.78-1.06 2.3.13-8.57 4.86-14.49 9-15.16 13.74 0 .07.12.07.33 0A44.51 44.51 0 01106.36 59a45.73 45.73 0 01-.39 5.82c.27-.7.55-1.37.82-2.21.26 8.34-3.8 16.94-7 24.21 6.38-7.3 8.67-20.65 10.7-22 2.92-1.29-1.32 14.09-5.58 20.76l1.34-1.67zM32.79 10.61v.09c.75-.42 1.5-.81 2.26-1.18-.74.35-1.48.71-2.21 1.09.66-1.06 4.76-2.74 6.57-3.81a48.23 48.23 0 00-14.61 7.33 58.49 58.49 0 017.4-4.85A57.63 57.63 0 008.26 33.59c-1.89 4-5.86 6.94-5.85 13.76a62 62 0 0130.38-36.74zm-5.34 77.08l.17-.22c-.52-.63-1-1.27-1.52-1.92a11.05 11.05 0 01.6 1.79 16.16 16.16 0 011.89 1.38 5.77 5.77 0 00-1.14-1zm23.35 14.44l.28.2h.43l-.71-.17zm6.86 1.18l2 .42a2.77 2.77 0 00.53-.26c-.83 0-1.67-.08-2.49-.16zM69.07 13a48.37 48.37 0 0112.52 3.92 39.61 39.61 0 0112.57 10.36A50 50 0 0069.07 13z" fill="#7c529d"/>
        <path d="M73.15 86.79H43.26A11.12 11.12 0 0132 75.82V45a11.12 11.12 0 0111.23-11h29.92a11.11 11.11 0 0111.23 11v30.82a11.12 11.12 0 01-11.23 11zM79.86 45a6.6 6.6 0 00-6.71-6.46H43.26A6.59 6.59 0 0036.54 45v30.82a6.59 6.59 0 006.71 6.45h29.9a6.6 6.6 0 006.71-6.45V45zM58.2 74.11a13.69 13.69 0 1113.69-13.68A13.7 13.7 0 0158.2 74.11zm0-22.85a9.17 9.17 0 109.17 9.17 9.17 9.17 0 00-9.17-9.17zm14.69-2a3.2 3.2 0 113.2-3.2 3.2 3.2 0 01-3.2 3.2z"/>
    </g>
</symbol><symbol id="ico-color-telegram" viewBox="0 0 117.25 116.97">
    <g data-name="&#x421;&#x43B;&#x43E;&#x439; 2">
        <path d="M61.5 92.94v24c30.64-.14 55.28-5.46 55.28-12s-24.64-11.87-55.28-12z" fill="#231f20" opacity=".15"/>
        <path d="M113.46 44c-1.13-1.73-2.28-5.88-3.48-6.47-6.69-14.15-19-25.94-34-31 6.53.39 9.32 4.16 13 6.33 10.61 5.71 18.65 15.62 23.18 25.61a56.49 56.49 0 00-6.82-11.26 44.75 44.75 0 018.2 16.8zm1.71 12.75a39.67 39.67 0 01.27 4.62c-.09-1.58-.19-3.11-.27-4.62zM66 9.32a54.69 54.69 0 00-20.71 1c7.41-2 15.91-3.06 23.43-.94L66 9.32zm9.48 3.23A39.31 39.31 0 0192.37 23a43.7 43.7 0 00-16.9-10.42zM22.35 16c.8-.66 1.6-1.28 2.4-1.87-.81.61-1.61 1.24-2.4 1.88zm83.93 67.9a7.82 7.82 0 00-1.56 2.61c1.41-1.6 3.64-5.14 4.65-6l-.2 2c4.05-4.42 6.65-15.09 8.07-21.07-2.54 14.49-9.68 30.28-22.91 41.31-13 11.09-32.16 15.93-48.64 11.5A62.44 62.44 0 013.61 81.5C2 78.48.21 70.37.27 64.54A65.46 65.46 0 015 34C14.13 13.41 35.88.25 59.6 0c4.86.15 10.79 2.62-.41 2.82a72.35 72.35 0 00-21.31 5.4 56.92 56.92 0 0114.58-3.84c-2.14.43-4.3.82-6.17 1.25A63.06 63.06 0 0175.91 7.2a62.41 62.41 0 00-41.56 5.31C21.52 19.09 11.44 31 7.67 44.31 11 37.42 15.12 27.8 21 24A55.82 55.82 0 005.57 57.48c0-1-.09-1.89 0-2.83-1.85 7.88-.36 16.65 2.1 24.23a55.81 55.81 0 01-2-21.41c0 3.25.06 6.66.41 10.75.19-2.25.17-5.43.51-8.57a48.1 48.1 0 012-12.17 41.3 41.3 0 00-.73 18c-.3-8.35 1.14-17.04 4.7-24.6A51.4 51.4 0 009.13 54.1a50.65 50.65 0 001.26 23l-.29-.85a14.3 14.3 0 00.59 1.69 53.36 53.36 0 003.6 8.55A30.57 30.57 0 0019.4 93l.83 1c-.67-.56-1.14-.73-.17.64 4.2 6 11.06 10.09 18.14 14.3a25.44 25.44 0 007.8 2.74 2.72 2.72 0 001.69.33c.67.11 1.34.29 2 .36 1.66.22 3.32.49 5 .54-1.61-.19-3.28-.38-5-.54-.63-.08-1.23-.27-1.84-.39a4.44 4.44 0 011.84 0A54.06 54.06 0 0120.23 94c.62.41 1.43 1 1.8 1.26A24 24 0 0119.4 93a53.82 53.82 0 01-6.24-9.69 16.86 16.86 0 001.89 2.56A53.93 53.93 0 019.13 54.1a50.7 50.7 0 0113.63-26.75 40 40 0 00-10.2 13.53c5.92-14.47 19.16-26.11 34.55-29.15a36 36 0 00-5.66 3.57 26.76 26.76 0 014.63-1.84l.84-.2a48.27 48.27 0 00-5.57 2.12 6.81 6.81 0 00-1.22 1.26c.26.29 4.78-1.06 2.3.13-8.56 4.86-14.49 9-15.16 13.73 0 .07.12.08.33 0A44.51 44.51 0 01106.36 59a46.08 46.08 0 01-.39 5.82c.27-.7.54-1.37.82-2.21.26 8.34-3.8 16.94-7 24.21 6.39-7.3 8.67-20.65 10.7-22 2.92-1.29-1.32 14.09-5.58 20.76l1.34-1.67zM32.79 10.61v.08c.75-.42 1.5-.8 2.26-1.17-.74.35-1.48.71-2.21 1.09.66-1.06 4.76-2.74 6.57-3.81a48.28 48.28 0 00-14.6 7.33 58.52 58.52 0 017.39-4.85A57.63 57.63 0 008.26 33.59c-1.89 4-5.86 6.94-5.85 13.76a62 62 0 0130.38-36.74zm-5.34 77.08l.17-.22c-.52-.63-1-1.27-1.52-1.92a11.15 11.15 0 01.6 1.79 16.34 16.34 0 011.89 1.38 5.8 5.8 0 00-1.14-1zm23.35 14.44l.28.2h.44l-.71-.17zm6.85 1.18l2 .42a2.9 2.9 0 00.53-.26c-.83 0-1.67-.08-2.49-.16zM69.07 13a48.34 48.34 0 0112.52 3.92 39.58 39.58 0 0112.57 10.36A50 50 0 0069.07 13z" fill="#00aff0"/>
        <path d="M78.3 38.32L26 58.72a1.91 1.91 0 00.15 3.61l13.3 3.93 5 15.75a2.28 2.28 0 003.81.91l6.88-7 13.5 9.91A2.81 2.81 0 0073 84.11l8.94-42.73a2.69 2.69 0 00-3.61-3.06zm-6.56 9.48L47.43 69.31a1.3 1.3 0 00-.43.83l-.94 8.32a.25.25 0 01-.49 0L41.71 66.1a1.31 1.31 0 01.56-1.5L71 46.79a.63.63 0 01.75 1z"/>
    </g>
</symbol><symbol id="ico-color-why1" viewBox="0 0 170.08 169.98">
    
    <path class="cls-2" d="M56.86 77.05v46.86"/>
    <path class="cls-2" d="M71.27 103.69v15.79"/>
    <path class="cls-2" d="M84.1 101.37v20.06"/>
    <path class="cls-2" d="M93.5 82.19v35.45"/>
    <path class="cls-2" d="M78.63 90.05V53.3"/>
    <path class="cls-2" d="M95.9 50.6v12.72"/>
    <path class="cls-2" d="M110.75 48.05v43.47"/>
    <g clip-path="url(#clip-path)">
        <path d="M145.71 19.21h11.67c12 0 22.59 10 23.2 21.83.26 5 .19 10.18.12 15.19 0 2.31-.06 4.69-.06 7v4.19h.17v17.15a12 12 0 01-3.93 9.31c-8.22 8.13-16.52 16.45-24.55 24.48l-10.73 10.8-18.24 18.22-20.09 20.06c-1.45 1.45-2.89 2.91-4.34 4.37-1.83 1.85-3.73 3.77-5.61 5.63a10 10 0 01-15-.08c-17.71-17.74-34.86-34.87-55.43-55.42-2.52-2.52-5.07-6.56-2.91-11.51a12 12 0 012.28-3.4c4.06-4.17 8.26-8.36 12.33-12.41l4.6-4.62 9.41-9.4L67 62.2l18.5-18.48 15.24-15.23c.83-.82 1.64-1.64 2.46-2.47 1.26-1.28 2.57-2.6 3.86-3.87a9.79 9.79 0 017.25-2.93h31.37m11.11 42.47h.21a18.34 18.34 0 00-.49-36.69h-.19a18.34 18.34 0 00.5 36.68m-36.42 3.38a27.82 27.82 0 00-14.4-4.22 25.46 25.46 0 00-4.67.44c-8.91 1.67-17.08 9.44-19 18.07a22.86 22.86 0 002.56 16.31c1.46 2.67 3.08 5.22 4.65 7.7 1.13 1.79 2.31 3.64 3.38 5.47a34.28 34.28 0 013 6.35 2.34 2.34 0 01-.07 1.9 2.37 2.37 0 01-1.55 1.11 5.7 5.7 0 01-1.36.16 6.42 6.42 0 01-1.57-.2c-3.33-.94-6-3.19-8.28-7.09s-1.55-6-.51-7.5l2-2.87-2.46-2.46-9.77-9.79-3-3-3 3c-6.28 6.34-10.11 18.39-1.35 32.36l-6.61 6.27-3.14 2.93 3 3.05 6.64 6.76 2 2 3 3 3-3 4.59-4.63 2.09-2.11 1 .6c5.09 2.93 9.87 4.35 14.61 4.35a23.71 23.71 0 0010.17-2.33 26.36 26.36 0 0011.61-10.6c3.87-6.51 3.82-13.71-.15-21.4-1.48-2.87-3.18-5.58-4.83-8.2-1-1.57-2-3.19-2.92-4.78l-.26-.45a40.43 40.43 0 01-3.21-6.26c-.55-1.51-.46-2.62 1.67-3.49a2.81 2.81 0 011.1-.22 4.15 4.15 0 011.47.3 12.81 12.81 0 017.66 7.51 5.39 5.39 0 01-.2 4.81c-.1.2-.25.44-.38.65l-.19.32-1.72 2.86 2.28 2.3 3.92 4 5.6 5.65 3.11 3.15 3-3.27a23.06 23.06 0 005.66-10.57c1.53-6.81.34-13.53-3.64-20.45l1.3-1.29 5.52-5.47 3-3-3-3-4.36-4.39-4.33-4.36-3-3-3 3.09-5 5.21-1.64 1.7M145.71 15h-31.39a14 14 0 00-10.16 4.13c-2.15 2.09-4.23 4.25-6.35 6.37Q80.94 42.38 64.06 59.23L36.22 87.06c-5.66 5.67-11.38 11.29-17 17a15.86 15.86 0 00-3.11 4.65c-2.46 5.61-1 11.37 3.78 16.16q27.72 27.69 55.43 55.42a14.17 14.17 0 0020.93.09c3.34-3.31 6.63-6.68 10-10q19.16-19.15 38.33-38.29c11.76-11.75 23.48-23.54 35.29-35.24A16.28 16.28 0 00185 84.54c-.1-7.08 0-14.17 0-21.25h-.17c0-7.49.32-15-.07-22.46-.72-14-13.36-25.78-27.38-25.81h-11.67m11.11 42.47a14.14 14.14 0 01-.46-28.28h.15a14.14 14.14 0 01.49 28.27zm-35.8 13l9.08-9.4 8.69 8.76-9.21 9.15c4.24 6.19 6.56 12.71 4.89 20.14a18.85 18.85 0 01-4.65 8.61l-9.52-9.62c.15-.26.44-.7.68-1.16a9.57 9.57 0 00.36-8.32 17 17 0 00-10-9.86 8.34 8.34 0 00-3-.58 7.11 7.11 0 00-2.68.53c-3.87 1.57-5.5 4.82-4 8.82a47.24 47.24 0 003.78 7.39c2.5 4.29 5.38 8.38 7.65 12.79 2.91 5.62 3.72 11.53.27 17.33a22.34 22.34 0 01-9.79 8.94 19.43 19.43 0 01-8.38 1.93 25.21 25.21 0 01-12.52-3.79c-1.2-.7-2.33-1.5-3.65-2.35l-9.09 9.17-8.64-8.81 9.23-8.73c-9.88-13.22-6.75-24.3-1.07-30l9.77 9.78c-2.73 4-2 8.06.37 12 2.52 4.24 5.89 7.63 10.76 9a10.35 10.35 0 002.7.35 9.61 9.61 0 002.42-.29 6.33 6.33 0 004.55-8.4 39.36 39.36 0 00-3.37-7.13c-2.58-4.41-5.53-8.6-8-13.08a18.8 18.8 0 01-2.14-13.38c1.54-7 8.41-13.49 15.66-14.85A21 21 0 01106 65a24.25 24.25 0 0112.77 4c.69.42 1.35.88 2.21 1.45" transform="translate(-14.96 -15.01)" fill="#2f353c"/>
    </g>
</symbol><symbol id="ico-color-why2" viewBox="0 0 170.08 121.37">
    
    <path class="cls-2" d="M39.29 10.26L24.35 25.38"/>
    <path class="cls-2" d="M56.46 10.26L43.21 25.07"/>
    <path class="cls-2" d="M73.63 10.26L60.38 25.07"/>
    <path class="cls-2" d="M90.79 10.26L77.55 25.07"/>
    <path class="cls-2" d="M107.96 10.26L94.72 25.07"/>
    <path class="cls-2" d="M125.13 10.26l-13.24 14.81"/>
    <path class="cls-2" d="M142.3 10.26l-13.25 14.81"/>
    <path class="cls-3" d="M24.45 79.01h72.67v5.86H24.45z"/>
    <path class="cls-3" d="M121.56 79.02h24.14V97h-24.14z"/>
    <path class="cls-3" d="M24.38 91.12H60.6v5.85H24.38z"/>
    <g clip-path="url(#clip-path)">
        <path d="M59.7 43.51h113.93c4.58 0 7.21 2.61 7.21 7.18v98.6c0 4.63-2.56 7.18-7.2 7.18H26.36c-4.63 0-7.19-2.55-7.19-7.18V50.68c0-4.62 2.56-7.17 7.2-7.17H59.7M23.05 67.73h154v-9.85c0-6.94-3.67-10.61-10.61-10.61H32.45c-5 0-8.8 3.13-9.31 7.54a45 45 0 00-.14 6.32c0 .8.05 1.6.05 2.4v4.2m75.5 85H167c6.31 0 10.09-3.8 10.09-10.16V95.89H22.92v46.76c0 6.32 3.78 10.09 10.11 10.1h65.52M59.7 39.31H26.36c-6.94 0-11.4 4.45-11.4 11.37Q15 100 15 149.3c0 7 4.44 11.38 11.39 11.38h147.24c7 0 11.4-4.44 11.4-11.37V50.7c0-6.89-4.5-11.38-11.41-11.38H59.7M27.25 63.53a73 73 0 01.07-8.24c.27-2.42 2.42-3.81 5.15-3.82h133.99c4.62 0 6.41 1.79 6.41 6.42v5.65zm145.63 36.56v42.49c0 4-1.93 6-5.89 6H33c-4.05 0-5.91-1.87-5.91-5.9v-42.59z" transform="translate(-14.96 -39.31)" fill="#2f353c"/>
    </g>
</symbol></svg>